SplineFontDB: 3.2
FontName: CaytuBasic
FullName: CaytuBasic
FamilyName: CaytuBasic
Weight: Book
Copyright: Copyright (c) 2021, Craig Cornelius
UComments: "This is a first attempt at a font for Catyu, a new script for Wolof."
Version: 0011
ItalicAngle: -51.2
UnderlinePosition: -200
UnderlineWidth: 99
Ascent: 1280
Descent: 768
InvalidEm: 0
sfntRevision: 0x00010000
LayerCount: 2
Layer: 0 1 "Back" 1
Layer: 1 1 "Fore" 0
XUID: [1021 341 221541093 14135300]
BaseHoriz: 1 'icfb'
StyleMap: 0x0000
FSType: 0
OS2Version: 4
OS2_WeightWidthSlopeOnly: 0
OS2_UseTypoMetrics: 1
CreationTime: 1621133145
ModificationTime: 1622001908
PfmFamily: 17
TTFWeight: 400
TTFWidth: 5
LineGap: 184
VLineGap: 0
Panose: 2 0 5 9 0 0 0 0 0 0
OS2TypoAscent: 1280
OS2TypoAOffset: 0
OS2TypoDescent: -768
OS2TypoDOffset: 0
OS2TypoLinegap: 184
OS2WinAscent: 1280
OS2WinAOffset: 0
OS2WinDescent: 454
OS2WinDOffset: 0
HheadAscent: 1280
HheadAOffset: 0
HheadDescent: 768
HheadDOffset: 0
OS2SubXSize: 1332
OS2SubYSize: 1434
OS2SubXOff: 0
OS2SubYOff: 285
OS2SupXSize: 1332
OS2SupYSize: 1434
OS2SupXOff: 0
OS2SupYOff: 984
OS2StrikeYSize: 100
OS2StrikeYPos: 527
OS2CapHeight: 1486
OS2XHeight: 1454
OS2Vendor: 'PfEd'
OS2CodePages: 00000001.00000000
OS2UnicodeRanges: 00000001.00000000.00000000.00000000
Lookup: 260 0 0 "Catyu consonant lengther" { "Catyu consonant lengther-1"  } []
MarkAttachClasses: 1
DEI: 91125
TtTable: prep
PUSHW_1
 511
SCANCTRL
PUSHB_1
 1
SCANTYPE
SVTCA[y-axis]
MPPEM
PUSHB_1
 8
LT
IF
PUSHB_2
 1
 1
INSTCTRL
EIF
PUSHB_2
 70
 6
CALL
IF
POP
PUSHB_1
 16
EIF
MPPEM
PUSHB_1
 20
GT
IF
POP
PUSHB_1
 128
EIF
SCVTCI
PUSHB_1
 20
CALL
EndTTInstrs
TtTable: fpgm
PUSHB_1
 0
FDEF
PUSHB_1
 0
SZP0
MPPEM
PUSHB_1
 42
LT
IF
PUSHB_1
 74
SROUND
EIF
PUSHB_1
 0
SWAP
MIAP[rnd]
RTG
PUSHB_1
 6
CALL
IF
RTDG
EIF
MPPEM
PUSHB_1
 42
LT
IF
RDTG
EIF
DUP
MDRP[rp0,rnd,grey]
PUSHB_1
 1
SZP0
MDAP[no-rnd]
RTG
ENDF
PUSHB_1
 1
FDEF
DUP
MDRP[rp0,min,white]
PUSHB_1
 12
CALL
ENDF
PUSHB_1
 2
FDEF
MPPEM
GT
IF
RCVT
SWAP
EIF
POP
ENDF
PUSHB_1
 3
FDEF

StartChar: .notdef
Encoding: 57 -1 0
Width: 1189
VWidth: 1361
Flags: W
LayerCount: 2
Fore
SplineSet
204 342 m 1,0,-1
 204 1024 l 1,1,-1
 476 1024 l 1,2,-1
 476 342 l 1,3,-1
 204 342 l 1,0,-1
238 374 m 1,4,-1
 440 374 l 1,5,-1
 440 989 l 1,6,-1
 238 989 l 1,7,-1
 238 374 l 1,4,-1
EndSplineSet
Validated: 1
EndChar

StartChar: lower_swoosh
Encoding: 58 -1 1
Width: 1423
VWidth: 811
Flags: W
LayerCount: 2
Fore
SplineSet
416 -918 m 0,0,1
 367 -970 367 -970 380 -952 c 0,2,3
 418 -860 418 -860 692 -556 c 0,4,5
 908 -304 908 -304 1020 -232 c 0,6,7
 1167 -139 1167 -139 1393 -138 c 0,8,9
 1445 -138 1445 -138 1501 -143 c 0,10,11
 1632 -155 1632 -155 1635 -188 c 0,12,13
 1635 -189 l 0,14,15
 1635 -209 1635 -209 1546 -221 c 0,16,17
 984 -307 984 -307 416 -918 c 0,0,1
EndSplineSet
Validated: 1
EndChar

StartChar: lower_dot
Encoding: 59 -1 2
Width: 663
VWidth: 779
Flags: W
LayerCount: 2
Fore
SplineSet
272 -544 m 128,-1,1
 244 -527 244 -527 246 -492.5 c 128,-1,2
 248 -458 248 -458 278 -432 c 128,-1,3
 308 -406 308 -406 347.5 -407 c 128,-1,4
 387 -408 387 -408 403.5 -438 c 128,-1,5
 420 -468 420 -468 419.5 -502 c 128,-1,6
 419 -536 419 -536 392.5 -551 c 128,-1,7
 366 -566 366 -566 333 -563.5 c 128,-1,0
 300 -561 300 -561 272 -544 c 128,-1,1
EndSplineSet
EndChar

StartChar: exclam
Encoding: 0 33 3
Width: 919
VWidth: 1427
Flags: W
LayerCount: 2
Fore
SplineSet
310 536 m 0,0,1
 315 610 315 610 369 658 c 0,2,3
 419 702 419 702 484 700 c 0,4,5
 492 700 492 700 497 700 c 0,6,7
 558 697 558 697 590 644 c 0,8,9
 619 595 619 595 620 536 c 0,10,11
 620 528 620 528 620 520 c 0,12,13
 617 470 617 470 573 445 c 0,14,15
 531 421 531 421 483 422 c 0,16,17
 479 422 479 422 474 422 c 0,18,19
 404 426 404 426 355 454 c 0,20,21
 309 478 309 478 308 527 c 0,22,23
 310 532 310 532 310 536 c 0,0,1
68 140 m 0,24,25
 72 214 72 214 125 260 c 0,26,27
 175 305 175 305 242 305 c 0,28,29
 248 305 248 305 253 305 c 0,30,31
 314 302 314 302 348 246 c 0,32,33
 377 196 377 196 378 138 c 0,34,35
 378 130 378 130 376 122 c 0,36,37
 373 72 373 72 330 49 c 0,38,39
 292 25 292 25 246 24 c 0,40,41
 238 24 238 24 232 24 c 0,42,43
 162 28 162 28 113 58 c 0,44,45
 67 84 67 84 68 132 c 0,46,47
 68 136 68 136 68 140 c 0,24,25
532 140 m 0,48,49
 536 214 536 214 590 260 c 0,50,51
 639 305 639 305 707 305 c 0,52,53
 713 305 713 305 718 305 c 0,54,55
 779 302 779 302 814 246 c 0,56,57
 843 196 843 196 842 138 c 0,58,59
 842 130 842 130 842 122 c 0,60,61
 839 72 839 72 794 49 c 0,62,63
 754 25 754 25 710 24 c 0,64,65
 704 24 704 24 696 24 c 0,66,67
 626 28 626 28 579 58 c 0,68,69
 533 84 533 84 532 132 c 0,70,71
 532 136 532 136 532 140 c 0,48,49
EndSplineSet
Validated: 33
EndChar

StartChar: period
Encoding: 2 46 5
Width: 236
VWidth: 1184
Flags: W
LayerCount: 2
Fore
SplineSet
150 370 m 0,0,1
 86 370 86 370 86 320 c 0,2,3
 86 276 86 276 138 276 c 0,4,5
 144 276 144 276 150 276 c 0,6,7
 194 276 194 276 191 323 c 128,-1,8
 188 370 188 370 150 370 c 0,0,1
88.5 275 m 128,-1,10
 67 288 67 288 68.5 318 c 128,-1,11
 70 348 70 348 94 370 c 128,-1,12
 118 392 118 392 150 391 c 128,-1,13
 182 390 182 390 197 364 c 128,-1,14
 212 338 212 338 211 310 c 128,-1,15
 210 282 210 282 190 270.5 c 128,-1,16
 170 259 170 259 140 260.5 c 128,-1,9
 110 262 110 262 88.5 275 c 128,-1,10
EndSplineSet
Validated: 1
EndChar

StartChar: question
Encoding: 13 63 6
Width: 1575
VWidth: 1475
Flags: W
LayerCount: 2
Fore
SplineSet
583.75 -250.900390625 m 0,0,1
 587.349609375 -159.099609375 587.349609375 -159.099609375 655.75 -99.7001953125 c 0,2,3
 717.849609375 -47.5 717.849609375 -47.5 797.049804688 -47.5 c 0,4,5
 807.849609375 -47.5 807.849609375 -47.5 815.950195312 -47.5 c 0,6,7
 893.349609375 -51.099609375 893.349609375 -51.099609375 934.75 -119.5 c 0,8,9
 972.549804688 -182.5 972.549804688 -182.5 970.75 -259.900390625 c 0,10,11
 970.75 -267.099609375 970.75 -267.099609375 970.75 -272.5 c 0,12,13
 967.150390625 -334.599609375 967.150390625 -334.599609375 913.150390625 -368.799804688 c 0,14,15
 868.150390625 -394.900390625 868.150390625 -394.900390625 814.150390625 -396.700195312 c 0,16,17
 803.349609375 -396.700195312 803.349609375 -396.700195312 790.75 -394.900390625 c 0,18,19
 707.049804688 -391.299804688 707.049804688 -391.299804688 643.150390625 -352.599609375 c 0,20,21
 582.849609375 -318.400390625 582.849609375 -318.400390625 583.75 -258.099609375 c 0,22,23
 583.75 -254.5 583.75 -254.5 583.75 -250.900390625 c 0,0,1
1287.54980469 1244.90039062 m 0,24,25
 1416.25 1090.09960938 1416.25 1090.09960938 1418.04980469 928.099609375 c 0,26,27
 1418.04980469 681.5 1418.04980469 681.5 1121.95019531 416.900390625 c 0,28,29
 810.549804688 136.099609375 810.549804688 136.099609375 572.950195312 137 c 0,30,31
 386.650390625 137 386.650390625 137 248.049804688 304.400390625 c 0,32,33
 140.049804688 432.200195312 140.049804688 432.200195312 140.950195312 579.799804688 c 0,34,35
 140.950195312 846.200195312 140.950195312 846.200195312 499.150390625 1167.5 c 0,36,37
 763.75 1408.70019531 763.75 1408.70019531 976.150390625 1408.70019531 c 0,38,39
 1148.95019531 1408.70019531 1148.95019531 1408.70019531 1287.54980469 1244.90039062 c 0,24,25
1174.15039062 1138.70019531 m 0,40,41
 1087.75 1256.59960938 1087.75 1256.59960938 954.549804688 1254.79980469 c 0,42,43
 788.950195312 1254.79980469 788.950195312 1254.79980469 547.75 1075.70019531 c 0,44,45
 239.950195312 842.599609375 239.950195312 842.599609375 239.950195312 634.700195312 c 0,46,47
 239.950195312 485.299804688 239.950195312 485.299804688 396.549804688 346.700195312 c 0,48,49
 545.049804688 218 545.049804688 218 681.849609375 217.099609375 c 0,50,51
 876.25 217.099609375 876.25 217.099609375 1051.75 470.900390625 c 0,52,53
 1238.04980469 739.099609375 1238.04980469 739.099609375 1239.84960938 933.5 c 0,54,55
 1240.75 1048.70019531 1240.75 1048.70019531 1174.15039062 1138.70019531 c 0,40,41
EndSplineSet
EndChar

StartChar: D
Encoding: 15 68 8
Width: 2117
VWidth: 1777
Flags: W
AnchorPoint: "top" 1336 1580 basechar 0
LayerCount: 2
Fore
SplineSet
1944 92 m 0,0,1
 1902 78 1902 78 1852 78 c 0,2,3
 1759 78 1759 78 1635 125 c 1,4,-1
 1258 99 l 1,5,6
 1058 191 1058 191 1059 306 c 0,7,8
 1059 338 1059 338 1074 372 c 0,9,10
 1160 558 1160 558 1174 561 c 0,11,12
 1178 561 1178 561 1178 550 c 0,13,14
 1178 540 1178 540 1174 520 c 0,15,16
 1170 498 1170 498 1162 349 c 0,17,18
 1162 340 1162 340 1160 335 c 0,19,20
 1160 165 1160 165 1340 166 c 0,21,22
 1478 166 1478 166 1478 218 c 0,23,24
 1478 222 1478 222 1476 228 c 1,25,-1
 1379 474 l 1,26,27
 1423 587 1423 587 1446 586 c 0,28,29
 1454 586 1454 586 1460 570 c 0,30,31
 1578 210 1578 210 1636 184 c 0,32,33
 1703 156 1703 156 1757 156 c 0,34,35
 1836 156 1836 156 1896 216 c 8,36,-1
 1668 548 l 1,37,-1
 1708 618 l 1,38,39
 1766 502 1766 502 2019 238 c 0,40,41
 2051 206 2051 206 2048 178 c 0,42,43
 2048 127 2048 127 1944 92 c 0,0,1
160 228 m 1,44,45
 1238 1084 1238 1084 1242 1370 c 0,46,47
 1245 1463 1245 1463 1326 1464 c 0,48,49
 1412 1464 1412 1464 1420 1430 c 0,50,51
 1423 1418 1423 1418 1422 1404 c 0,52,53
 1422 1126 1422 1126 220 192 c 1,54,55
 298 143 298 143 508 120 c 0,56,57
 562 114 562 114 628 114 c 0,58,59
 785 114 785 114 1020 152 c 1,60,61
 1064 102 1064 102 1064 72 c 0,62,63
 1064 32 1064 32 986 29 c 0,64,65
 898 25 898 25 808 26 c 0,66,67
 576 26 576 26 340 58 c 0,68,69
 156 82 156 82 68 156 c 1,70,-1
 156 232 l 2,71,-1
 160 228 l 1,44,45
EndSplineSet
Validated: 33
EndChar

StartChar: G
Encoding: 17 71 10
Width: 2117
VWidth: 1447
Flags: W
AnchorPoint: "top" 1362 1592 basechar 0
LayerCount: 2
Fore
SplineSet
1692 -212 m 0,0,1
 1695 -144 1695 -144 1743 -100 c 0,2,3
 1789 -58 1789 -58 1859 -60 c 0,4,5
 1863 -60 1863 -60 1864 -60 c 0,6,7
 1922 -63 1922 -63 1952 -114 c 0,8,9
 1980 -160 1980 -160 1978 -214 c 0,10,11
 1978 -222 1978 -222 1978 -228 c 0,12,13
 1974 -274 1974 -274 1935 -300 c 0,14,15
 1903 -320 1903 -320 1862 -317 c 0,16,17
 1852 -317 1852 -317 1842 -317 c 0,18,19
 1778 -313 1778 -313 1732 -288 c 0,20,21
 1690 -264 1690 -264 1692 -221 c 0,22,23
 1692 -216 1692 -216 1692 -212 c 0,0,1
1332 -212 m 0,24,25
 1336 -144 1336 -144 1384 -100 c 0,26,27
 1428 -58 1428 -58 1496 -60 c 0,28,29
 1500 -60 1500 -60 1504 -60 c 0,30,31
 1562 -63 1562 -63 1594 -114 c 0,32,33
 1620 -158 1620 -158 1618 -212 c 0,34,35
 1618 -220 1618 -220 1618 -228 c 0,36,37
 1615 -274 1615 -274 1574 -300 c 0,38,39
 1539 -320 1539 -320 1500 -317 c 0,40,41
 1490 -317 1490 -317 1480 -317 c 0,42,43
 1416 -313 1416 -313 1372 -288 c 0,44,45
 1330 -264 1330 -264 1332 -218 c 0,46,47
 1332 -215 1332 -215 1332 -212 c 0,24,25
EndSplineSet
Refer: 8 68 N 1 0 0 1 0 0 2
Validated: 32801
EndChar

StartChar: J
Encoding: 18 74 11
Width: 2117
VWidth: 1447
Flags: W
AnchorPoint: "top" 1344 1600 basechar 0
LayerCount: 2
Fore
SplineSet
1393 -221 m 0,0,1
 1397 -153 1397 -153 1446 -110 c 0,2,3
 1492 -68 1492 -68 1558 -70 c 0,4,5
 1562 -70 1562 -70 1564 -70 c 0,6,7
 1622 -73 1622 -73 1652 -124 c 0,8,9
 1679 -170 1679 -170 1679 -224 c 0,10,11
 1679 -232 1679 -232 1679 -238 c 0,12,13
 1676 -284 1676 -284 1636 -308 c 0,14,15
 1600 -330 1600 -330 1558 -328 c 0,16,17
 1550 -328 1550 -328 1542 -328 c 0,18,19
 1478 -324 1478 -324 1434 -300 c 0,20,21
 1393 -274 1393 -274 1393 -230 c 0,22,23
 1393 -225 1393 -225 1393 -221 c 0,0,1
EndSplineSet
Refer: 8 68 N 1 0 0 1 0 0 2
Validated: 32801
EndChar

StartChar: M
Encoding: 19 77 12
Width: 1537
VWidth: 1625
InSpiro: 1
Flags: WO
LayerCount: 2
Fore
SplineSet
498.752 -226.25 m 0
 497.730259891 -214.511879156 497.730259891 -214.511879156 500.444916174 -202.590939508 c 0
 503.159572457 -190.66999986 503.159572457 -190.66999986 508.973739224 -179.646649458 c 0
 514.428040656 -169.305584558 514.428040656 -169.305584558 522.113320764 -159.942156963 c 0
 529.798600872 -150.578729368 529.798600872 -150.578729368 539.25 -142.25 c 0
 548.697770119 -133.924468575 548.697770119 -133.924468575 558.963404593 -127.475427352 c 0
 569.229039066 -121.02638613 569.229039066 -121.02638613 580.187008059 -116.90525246 c 0
 591.788468966 -112.542110786 591.788468966 -112.542110786 603.690530018 -111.302584799 c 0
 615.59259107 -110.063058811 615.59259107 -110.063058811 627.75 -112.25 c 0
 639.508680953 -114.515999845 639.508680953 -114.515999845 650.467582533 -120.301748969 c 0
 661.426484113 -126.087498093 661.426484113 -126.087498093 670.76081376 -134.570149897 c 0
 673.757129994 -137.29307787 673.757129994 -137.29307787 676.608249622 -140.267302907 c 0
 679.45936925 -143.241527943 679.45936925 -143.241527943 682.074042894 -146.362577407 c 0
 684.688716538 -149.483626871 684.688716538 -149.483626871 687.129509066 -152.766895195 c 0
 689.570301593 -156.050163519 689.570301593 -156.050163519 691.822433942 -159.492416743 c 0
 694.074566291 -162.934669967 694.074566291 -162.934669967 696.119034992 -166.443314602 c 0
 698.163503693 -169.951959238 698.163503693 -169.951959238 700.062 -173.625 c 0
 717.881264011 -208.100117401 717.881264011 -208.100117401 713.25 -238.25 c 0
 710.218540743 -257.985031404 710.218540743 -257.985031404 697.923789211 -273.531605982 c 0
 691.995656203 -281.027663277 691.995656203 -281.027663277 684.232334636 -287.011383408 c 0
 676.469013069 -292.995103538 676.469013069 -292.995103538 667.489191356 -297.196370981 c 0
 656.10769577 -302.52127702 656.10769577 -302.52127702 642.981435176 -305.160871602 c 0
 629.855174582 -307.800466185 629.855174582 -307.800466185 617.192412184 -307.699183856 c 0
 604.529649786 -307.597901527 604.529649786 -307.597901527 591.25 -305.75 c 0
 554.622718944 -300.207969194 554.622718944 -300.207969194 530.584684757 -281.771246981 c 0
 528.394162559 -280.091157463 528.394162559 -280.091157463 526.322681985 -278.298463198 c 0
 524.251201411 -276.505768933 524.251201411 -276.505768933 522.280766504 -274.583909603 c 0
 520.310331597 -272.662050273 520.310331597 -272.662050273 518.469299444 -270.618585966 c 0
 516.62826729 -268.575121659 516.62826729 -268.575121659 514.929565762 -266.430462179 c 0
 513.230864233 -264.285802698 513.230864233 -264.285802698 511.669864999 -262.008073336 c 0
 510.108865764 -259.730343974 510.108865764 -259.730343974 508.729420524 -257.376924656 c 0
 504.547146387 -250.241705035 504.547146387 -250.241705035 502.005507636 -242.334956455 c 0
 499.463868886 -234.428207875 499.463868886 -234.428207875 498.752 -226.25 c 0
  Spiro
    498.752 -226.25 o
    539.25 -142.25 o
    627.75 -112.25 o
    700.062 -173.625 o
    713.25 -238.25 o
    591.25 -305.75 o
    0 0 z
  EndSpiro
778.752 -226.25 m 0
 774.810587571 -211.880586849 774.810587571 -211.880586849 775.533275438 -196.614720035 c 0
 776.255963305 -181.34885322 776.255963305 -181.34885322 781.633792231 -167.469407783 c 0
 787.020295502 -153.567575042 787.020295502 -153.567575042 796.763710803 -141.882754416 c 0
 806.507126105 -130.19793379 806.507126105 -130.19793379 819.25 -122.25 c 0
 843.822376632 -106.923816587 843.822376632 -106.923816587 874.626697531 -106.831811617 c 0
 903.780175043 -106.744737312 903.780175043 -106.744737312 930.75 -120.25 c 0
 941.833955423 -125.800341163 941.833955423 -125.800341163 951.534362081 -133.34710699 c 0
 961.234768739 -140.893872818 961.234768739 -140.893872818 968.941788079 -150.145963366 c 0
 974.190253846 -156.446619738 974.190253846 -156.446619738 978.344281561 -163.411825364 c 0
 982.498309275 -170.37703099 982.498309275 -170.37703099 985.497987486 -178.051489899 c 0
 988.497665696 -185.725948807 988.497665696 -185.725948807 990.062 -193.625 c 0
 994.296601484 -215.007471647 994.296601484 -215.007471647 988.25770205 -235.821144834 c 0
 985.304399999 -245.999996858 985.304399999 -245.999996858 979.976865588 -255.340962679 c 0
 974.649331177 -264.6819285 974.649331177 -264.6819285 967.371352049 -272.558204393 c 0
 962.596637869 -277.725430833 962.596637869 -277.725430833 957.012059836 -282.208596383 c 0
 951.427481803 -286.691761933 951.427481803 -286.691761933 945.372001702 -290.280075526 c 0
 939.316521602 -293.868389118 939.316521602 -293.868389118 932.737137436 -296.6948651 c 0
 926.15775327 -299.521341082 926.15775327 -299.521341082 919.323133896 -301.453703849 c 0
 912.488514521 -303.386066617 912.488514521 -303.386066617 905.420637066 -304.47358069 c 0
 898.35275961 -305.561094762 898.35275961 -305.561094762 891.25 -305.75 c 0
 872.653232065 -306.244600277 872.653232065 -306.244600277 854.565842985 -300.946066351 c 0
 836.478453906 -295.647532425 836.478453906 -295.647532425 821.25585596 -285.167226503 c 0
 805.799093663 -274.52570539 805.799093663 -274.52570539 794.672802098 -259.235322085 c 0
 783.546510533 -243.944938779 783.546510533 -243.944938779 778.752 -226.25 c 0
  Spiro
    778.752 -226.25 o
    819.25 -122.25 o
    930.75 -120.25 o
    990.062 -193.625 o
    891.25 -305.75 o
    0 0 z
  EndSpiro
EndSplineSet
Refer: 28 110 N 1 0 0 1 0 0 2
EndChar

StartChar: bracketleft
Encoding: 20 91 13
Width: 247
VWidth: 1568
Flags: W
LayerCount: 2
Fore
SplineSet
121.5 1004.5 m 128,-1,1
 118 1021 118 1021 132 1027 c 0,2,3
 154 1033 154 1033 156 1012 c 0,4,5
 160 990 160 990 142.5 989 c 128,-1,0
 125 988 125 988 121.5 1004.5 c 128,-1,1
152 1174 m 0,6,7
 88 1174 88 1174 88 1123 c 0,8,9
 88 1079 88 1079 140 1078 c 0,10,11
 146 1078 146 1078 152 1080 c 0,12,13
 196 1080 196 1080 193 1127 c 128,-1,14
 190 1174 190 1174 152 1174 c 0,6,7
90.5 1078 m 128,-1,16
 68 1092 68 1092 70 1120.5 c 128,-1,17
 72 1149 72 1149 96 1171.5 c 128,-1,18
 120 1194 120 1194 152 1193 c 128,-1,19
 184 1192 184 1192 198 1166 c 128,-1,20
 212 1140 212 1140 212 1112.5 c 128,-1,21
 212 1085 212 1085 191 1072.5 c 128,-1,22
 170 1060 170 1060 141.5 1062 c 128,-1,15
 113 1064 113 1064 90.5 1078 c 128,-1,16
EndSplineSet
Validated: 1
EndChar

StartChar: bracketright
Encoding: 21 93 14
Width: 314
VWidth: 1603
Flags: W
LayerCount: 2
Fore
SplineSet
71 1156 m 0,0,1
 67 1174 67 1174 79 1178 c 0,2,3
 101 1184 101 1184 103.5 1162 c 128,-1,4
 106 1140 106 1140 90 1139 c 128,-1,5
 74 1138 74 1138 71 1156 c 0,0,1
224 1212 m 0,6,7
 160 1212 160 1212 160 1160 c 0,8,9
 160 1116 160 1116 210 1116 c 0,10,11
 214 1116 214 1116 221 1116 c 0,12,13
 265 1116 265 1116 264 1156 c 0,14,15
 262 1212 262 1212 224 1212 c 0,6,7
160 1115.5 m 128,-1,17
 138 1128 138 1128 140 1158 c 128,-1,18
 142 1188 142 1188 167 1209 c 128,-1,19
 192 1230 192 1230 222.5 1230 c 128,-1,20
 253 1230 253 1230 268.5 1204 c 128,-1,21
 284 1178 284 1178 284 1149 c 0,22,23
 281 1100 281 1100 227 1102 c 0,24,25
 221 1102 221 1102 216 1102 c 0,26,16
 182 1103 182 1103 160 1115.5 c 128,-1,17
EndSplineSet
Validated: 33
EndChar

StartChar: underscore
Encoding: 23 95 16
Width: 623
VWidth: 1184
Flags: W
LayerCount: 2
Fore
SplineSet
500 370 m 0,0,1
 433 370 433 370 434 316 c 0,2,3
 434 276 434 276 488 276 c 0,4,5
 494 276 494 276 498 276 c 0,6,7
 542 276 542 276 540 316 c 0,8,9
 538 370 538 370 500 370 c 0,0,1
435.5 275 m 128,-1,11
 413 288 413 288 416 318 c 128,-1,12
 419 348 419 348 443.5 370 c 128,-1,13
 468 392 468 392 499 391 c 128,-1,14
 530 390 530 390 546 364 c 128,-1,15
 562 338 562 338 561.5 310 c 128,-1,16
 561 282 561 282 538.5 270.5 c 128,-1,17
 516 259 516 259 487 260.5 c 128,-1,10
 458 262 458 262 435.5 275 c 128,-1,11
152 370 m 0,18,19
 85 370 85 370 86 316 c 0,20,21
 86 272 86 272 150 276 c 0,22,23
 194 276 194 276 192 316 c 0,24,25
 190 370 190 370 152 370 c 0,18,19
88.5 275 m 128,-1,27
 67 288 67 288 68.5 318 c 128,-1,28
 70 348 70 348 95 370 c 128,-1,29
 120 392 120 392 151 391 c 128,-1,30
 182 390 182 390 197 364 c 128,-1,31
 212 338 212 338 211 310 c 128,-1,32
 210 282 210 282 190 270.5 c 128,-1,33
 170 259 170 259 140 260.5 c 128,-1,26
 110 262 110 262 88.5 275 c 128,-1,27
324 370 m 0,34,35
 260 370 260 370 260 320 c 0,36,37
 260 271 260 271 324 276 c 0,38,39
 368 276 368 276 365 323 c 128,-1,40
 362 370 362 370 324 370 c 0,34,35
262.5 275 m 128,-1,42
 241 288 241 288 242.5 318 c 128,-1,43
 244 348 244 348 268 370 c 128,-1,44
 292 392 292 392 324 391 c 128,-1,45
 356 390 356 390 372 364 c 128,-1,46
 388 338 388 338 387.5 310 c 128,-1,47
 387 282 387 282 364.5 270.5 c 128,-1,48
 342 259 342 259 313 260.5 c 128,-1,41
 284 262 284 262 262.5 275 c 128,-1,42
EndSplineSet
Validated: 33
EndChar

StartChar: a
Encoding: 24 97 17
Width: 1038
VWidth: 1419
Flags: W
LayerCount: 2
Fore
SplineSet
807.965820312 92 m 1024,0,-1
471.965820312 860 m 1,1,-1
 176.965820312 110 l 1,2,-1
 807.965820312 92 l 1,3,-1
 471.965820312 860 l 1,1,-1
965.965820312 61 m 0,4,5
 965.965820312 1 965.965820312 1 690.965820312 4.5 c 128,-1,6
 415.965820312 8 415.965820312 8 251.965820312 14 c 128,-1,7
 87.9658203125 20 87.9658203125 20 69.9658203125 20 c 0,8,9
 45.9658203125 20 45.9658203125 20 137.965820312 308 c 0,10,11
 211.965820312 535 211.965820312 535 318.965820312 794 c 128,-1,12
 425.965820312 1053 425.965820312 1053 451.965820312 1053 c 0,13,14
 495.965820312 1053 495.965820312 1053 685.965820312 704 c 0,15,16
 962.965820312 193 962.965820312 193 965.965820312 61 c 0,4,5
EndSplineSet
Validated: 33
EndChar

StartChar: e
Encoding: 28 101 20
Width: 1312
VWidth: 1419
Flags: W
LayerCount: 2
Fore
SplineSet
78 138 m 0,0,1
 14 295 14 295 378 826 c 0,2,3
 541 1056 541 1056 707 1053 c 0,4,5
 711 1053 711 1053 714 1053 c 0,6,7
 857 1049 857 1049 942 910 c 0,8,9
 1231 408 1231 408 1231 156 c 0,10,11
 1231 59 1231 59 1156 49 c 0,12,13
 946 21 946 21 818 20 c 0,14,15
 533 20 533 20 550 294 c 0,16,17
 576 636 576 636 637 637 c 0,18,19
 640 637 640 637 644 636 c 0,20,21
 704 624 704 624 704 494 c 1,22,-1
 694 338 l 1,23,24
 694 94 694 94 1018 152 c 0,25,26
 1068 160 1068 160 1068 221 c 128,-1,27
 1068 282 1068 282 1018 396 c 1,28,29
 846 873 846 873 726 872 c 0,30,31
 722 872 722 872 719 872 c 0,32,33
 585 858 585 858 536 772 c 0,34,35
 142 132 142 132 86 132 c 0,36,37
 81 132 81 132 78 138 c 0,0,1
EndSplineSet
EndChar

StartChar: f
Encoding: 29 102 21
Width: 1395
VWidth: 1369
Flags: W
HStem: 573 49<580 698> 579 82<814 1010>
VStem: 728 68<360 562>
AnchorPoint: "top" 908 1053 basechar 0
LayerCount: 2
Fore
SplineSet
618 6 m 0,0,1
 618 -34 618 -34 702 -33 c 128,-1,2
 786 -32 786 -32 795 -10 c 128,-1,3
 804 12 804 12 804 48 c 128,-1,4
 804 84 804 84 786 132 c 128,-1,5
 768 180 768 180 763 181 c 128,-1,6
 758 182 758 182 756 182 c 0,7,8
 714 182 714 182 666 110 c 128,-1,9
 618 38 618 38 618 6 c 0,0,1
740 -204 m 2,10,-1
 740 -192 l 2,11,12
 740 -132 740 -132 454 -86 c 1,13,14
 454 -82 454 -82 454 -79 c 0,15,16
 454 78 454 78 562 206 c 0,17,18
 700 374 700 374 726 374 c 0,19,20
 728 374 l 0,21,22
 832 364 832 364 847 291 c 0,23,24
 907 70 907 70 972 70 c 0,25,26
 1124 70 1124 70 1124 166 c 0,27,28
 1124 736 1124 736 893 736 c 0,29,30
 750 736 750 736 487 308 c 128,-1,31
 224 -120 224 -120 188 -134 c 128,-1,32
 152 -148 152 -148 128 -148 c 0,33,34
 67 -148 67 -148 68 -68 c 0,35,36
 68 -39 68 -39 76 3 c 0,37,38
 108 160 108 160 413 567.5 c 144,-1,39
 718 975 718 975 900 975 c 0,40,41
 906 975 906 975 911 974 c 0,42,43
 1231 952 1231 952 1315 156 c 0,44,45
 1318 130 1318 130 1318 104 c 0,46,47
 1318 -82 1318 -82 1148 -82 c 2,48,-1
 1084 -82 l 2,49,50
 916 -82 916 -82 902 -92 c 1,51,-1
 884 -310 l 1,52,53
 876 -346 876 -346 829 -344 c 0,54,55
 740 -344 740 -344 740 -204 c 2,10,-1
EndSplineSet
Validated: 33
EndChar

StartChar: g
Encoding: 30 103 22
Width: 1301
VWidth: 1447
Flags: W
AnchorPoint: "top" 904 1483 basechar 0
LayerCount: 2
Fore
SplineSet
992 -394 m 4
 964 -377 964 -377 966 -342.5 c 4
 968 -308 968 -308 998 -282 c 4
 1028 -256 1028 -256 1067.5 -257 c 4
 1107 -258 1107 -258 1123.5 -288 c 4
 1140 -318 1140 -318 1139.5 -352 c 4
 1139 -386 1139 -386 1112.5 -401 c 4
 1086 -416 1086 -416 1053 -413.5 c 4
 1020 -411 1020 -411 992 -394 c 4
EndSplineSet
Refer: 25 107 N 1 0 0 1 0 -24 2
EndChar

StartChar: h
Encoding: 31 104 23
Width: 1038
VWidth: 1223
Flags: W
AnchorPoint: "top" 514 1146 basechar 0
LayerCount: 2
Fore
SplineSet
619.965820312 -250 m 0,0,1
 541.965820312 -246 541.965820312 -246 541.965820312 -195 c 0,2,3
 541.965820312 -192 541.965820312 -192 541.965820312 -189 c 0,4,5
 544.965820312 -160 544.965820312 -160 569.965820312 -138 c 0,6,7
 595.965820312 -116 595.965820312 -116 625.965820312 -118 c 0,8,9
 654.965820312 -121 654.965820312 -121 671.965820312 -146 c 0,10,11
 686.965820312 -172 686.965820312 -172 687.965820312 -200 c 0,12,13
 687.965820312 -228 687.965820312 -228 665.965820312 -241 c 0,14,15
 643.965820312 -254 643.965820312 -254 619.965820312 -250 c 0,0,1
394.965820312 -250 m 0,16,17
 318.965820312 -246 318.965820312 -246 317.965820312 -195 c 0,18,19
 317.965820312 -192 317.965820312 -192 317.965820312 -189 c 0,20,21
 320.965820312 -160 320.965820312 -160 345.965820312 -138 c 0,22,23
 371.965820312 -116 371.965820312 -116 401.965820312 -118 c 0,24,25
 430.965820312 -121 430.965820312 -121 447.965820312 -146 c 0,26,27
 461.965820312 -172 461.965820312 -172 461.965820312 -200 c 0,28,29
 461.965820312 -228 461.965820312 -228 438.965820312 -241 c 0,30,31
 418.965820312 -254 418.965820312 -254 394.965820312 -250 c 0,16,17
EndSplineSet
Refer: 17 97 N 1 0 0 1 0 0 2
Validated: 32769
EndChar

StartChar: i
Encoding: 32 105 24
Width: 1048
VWidth: 1419
Flags: W
LayerCount: 2
Fore
SplineSet
590.065429688 583.4609375 m 128,-1,1
 555.612304688 611.712890625 555.612304688 611.712890625 518.403320312 611.712890625 c 128,-1,2
 481.193359375 611.712890625 481.193359375 611.712890625 459.143554688 583.4609375 c 128,-1,3
 437.09375 555.208984375 437.09375 555.208984375 438.471679688 521.4453125 c 128,-1,4
 439.849609375 487.681640625 439.849609375 487.681640625 461.900390625 458.051757812 c 128,-1,5
 483.950195312 428.421875 483.950195312 428.421875 521.159179688 427.043945312 c 128,-1,6
 558.369140625 425.666015625 558.369140625 425.666015625 592.1328125 452.5390625 c 128,-1,7
 625.896484375 479.412109375 625.896484375 479.412109375 625.208007812 517.310546875 c 128,-1,0
 624.518554688 555.208984375 624.518554688 555.208984375 590.065429688 583.4609375 c 128,-1,1
384.724609375 378.809570312 m 0,8,9
 326.84375 427.043945312 326.84375 427.043945312 326.84375 504.908203125 c 128,-1,10
 326.84375 582.771484375 326.84375 582.771484375 383.346679688 650.299804688 c 128,-1,11
 439.849609375 717.828125 439.849609375 717.828125 529.427734375 717.828125 c 128,-1,12
 619.005859375 717.828125 619.005859375 717.828125 683.778320312 662.703125 c 128,-1,13
 748.549804688 607.578125 748.549804688 607.578125 748.549804688 520.755859375 c 128,-1,14
 748.549804688 433.934570312 748.549804688 433.934570312 682.400390625 387.078125 c 0,15,16
 610.737304688 337.465820312 610.737304688 337.465820312 518.403320312 334.708984375 c 0,17,18
 437.09375 334.708984375 437.09375 334.708984375 384.724609375 378.809570312 c 0,8,9
654.837890625 856.330078125 m 128,-1,20
 580.418945312 884.581054688 580.418945312 884.581054688 500.487304688 884.581054688 c 128,-1,21
 420.556640625 884.581054688 420.556640625 884.581054688 357.162109375 832.212890625 c 0,22,23
 248.291015625 748.146484375 248.291015625 748.146484375 194.543945312 588.284179688 c 0,24,25
 175.25 530.403320312 175.25 530.403320312 178.005859375 508.353515625 c 0,26,27
 178.005859375 336.087890625 178.005859375 336.087890625 275.853515625 227.904296875 c 128,-1,28
 373.700195312 119.721679688 373.700195312 119.721679688 483.950195312 119.721679688 c 0,29,30
 679.643554688 119.721679688 679.643554688 119.721679688 811.943359375 320.927734375 c 0,31,32
 883.606445312 429.799804688 883.606445312 429.799804688 886.362304688 491.815429688 c 0,33,34
 891.875 593.796875 891.875 593.796875 842.262695312 690.265625 c 0,35,36
 814.700195312 742.634765625 814.700195312 742.634765625 771.978515625 785.356445312 c 128,-1,19
 729.255859375 828.078125 729.255859375 828.078125 654.837890625 856.330078125 c 128,-1,20
65 497.328125 m 0,37,38
 65 709.559570312 65 709.559570312 200.056640625 869.421875 c 128,-1,39
 335.112304688 1029.28417969 335.112304688 1029.28417969 552.856445312 1029.28417969 c 0,40,41
 668.619140625 1029.28417969 668.619140625 1029.28417969 769.911132812 961.755859375 c 128,-1,42
 871.203125 894.228515625 871.203125 894.228515625 930.462890625 781.221679688 c 0,43,44
 991.099609375 662.703125 991.099609375 662.703125 988.34375 523.512695312 c 0,45,46
 988.34375 395.346679688 988.34375 395.346679688 934.596679688 279.583984375 c 0,47,48
 882.228515625 163.822265625 882.228515625 163.822265625 774.044921875 85.2685546875 c 128,-1,49
 665.862304688 6.7158203125 665.862304688 6.7158203125 537.697265625 6.7158203125 c 128,-1,50
 409.53125 6.7158203125 409.53125 6.7158203125 302.037109375 72.865234375 c 128,-1,51
 194.543945312 139.015625 194.543945312 139.015625 129.771484375 252.021484375 c 128,-1,52
 65 365.028320312 65 365.028320312 65 497.328125 c 0,37,38
EndSplineSet
Validated: 33
EndChar

StartChar: k
Encoding: 34 107 25
Width: 1303
VWidth: 1447
Flags: W
AnchorPoint: "top" 906 1558 basechar 0
LayerCount: 2
Fore
SplineSet
722 -279 m 128,-1,1
 694 -250 694 -250 658 -245.5 c 128,-1,2
 622 -241 622 -241 602 -266.5 c 128,-1,3
 582 -292 582 -292 582 -311 c 128,-1,4
 582 -330 582 -330 582 -347 c 128,-1,5
 582 -364 582 -364 598 -390 c 0,6,7
 618 -422 618 -422 654 -421 c 128,-1,8
 690 -420 690 -420 718 -402 c 0,9,10
 750 -382 750 -382 750 -345 c 128,-1,0
 750 -308 750 -308 722 -279 c 128,-1,1
532 -192 m 128,-1,12
 580 -138 580 -138 656 -138 c 128,-1,13
 732 -138 732 -138 791 -197 c 128,-1,14
 850 -256 850 -256 850 -338 c 0,15,16
 850 -341 850 -341 850 -342 c 0,17,18
 850 -410 850 -410 794.5 -452 c 128,-1,19
 739 -494 739 -494 668 -494 c 0,20,21
 589 -494 589 -494 536 -444 c 0,22,23
 482 -392 482 -392 483 -319 c 128,-1,11
 484 -246 484 -246 532 -192 c 128,-1,12
294 189 m 0,24,25
 280 197 280 197 222 230.5 c 128,-1,26
 164 264 164 264 116 309.5 c 128,-1,27
 68 355 68 355 68 381.5 c 128,-1,28
 68 408 68 408 100 431 c 128,-1,29
 132 454 132 454 214 498 c 0,30,31
 424 611 424 611 594 796 c 0,32,33
 725 934 725 934 784 1047 c 0,34,35
 845 1160 845 1160 881 1324 c 0,36,37
 893 1376 893 1376 935.5 1313.5 c 128,-1,38
 978 1251 978 1251 978 1170 c 0,39,40
 978 1134 978 1134 966 1114 c 0,41,42
 850 884 850 884 568 614 c 0,43,44
 444 496 444 496 405 450 c 128,-1,45
 366 404 366 404 364 382 c 128,-1,46
 362 360 362 360 378 344 c 128,-1,47
 394 328 394 328 411 316.5 c 128,-1,48
 428 305 428 305 458 288 c 128,-1,49
 488 271 488 271 514.5 252.5 c 128,-1,50
 541 234 541 234 597.5 217 c 128,-1,51
 654 200 654 200 694 198 c 0,52,53
 764 192 764 192 825 192 c 128,-1,54
 886 192 886 192 968 227 c 128,-1,55
 1050 262 1050 262 1050 300 c 0,56,57
 1050 312 1050 312 1038.5 333.5 c 128,-1,58
 1027 355 1027 355 927.5 470.5 c 128,-1,59
 828 586 828 586 828 618 c 0,60,61
 828 636 828 636 856 634 c 0,62,63
 1019 619 1019 619 1116 496.5 c 128,-1,64
 1213 374 1213 374 1224 198 c 0,65,66
 1224 195 l 0,67,68
 1224 105 1224 105 1064 68 c 0,69,70
 896 30 896 30 765 32 c 0,71,72
 634 32 634 32 538 68 c 0,73,74
 430 107 430 107 294 189 c 0,24,25
EndSplineSet
Validated: 33
EndChar

StartChar: l
Encoding: 35 108 26
Width: 1452
VWidth: 693
Flags: WO
HStem: 192 40<128 154> 296 102<116 192> 372 20G<272 348>
VStem: 110 90<302 394>
AnchorPoint: "top" 1028 894 basechar 0
LayerCount: 2
Fore
SplineSet
388 255 m 0
 275 259 275 259 276 390 c 0
 276 393 276 393 276 394 c 0
 276 525 276 525 382 522 c 0
 386 522 386 522 388 522 c 0
 510 518 510 518 512 384 c 0
 512 253 512 253 396 255 c 0
 392 255 392 255 388 255 c 0
-144 -1894 m 1025
EndSplineSet
Refer: 67 -1 N 1 0 0 1 212 0 2
EndChar

StartChar: m
Encoding: 36 109 27
Width: 1519
VWidth: 1625
InSpiro: 1
Flags: W
AnchorPoint: "top" 1398 1470 basechar 0
LayerCount: 2
Fore
SplineSet
708.752929688 -226.25 m 0,0,1
 707.697265625 -214.482421875 707.697265625 -214.482421875 710.365234375 -202.534179688 c 0,2,3
 713.034179688 -190.583984375 713.034179688 -190.583984375 718.815429688 -179.55859375 c 0,4,5
 724.26171875 -169.172851562 724.26171875 -169.172851562 731.994140625 -159.81640625 c 0,6,7
 739.728515625 -150.462890625 739.728515625 -150.462890625 749.25 -142.25 c 0,8,9
 768.759765625 -125.42578125 768.759765625 -125.42578125 790.330078125 -117.4453125 c 0,10,11
 814.505859375 -108.5 814.505859375 -108.5 837.75 -112.25 c 0,12,13
 867.465820312 -117.04296875 867.465820312 -117.04296875 890.201171875 -141.099609375 c 0,14,15
 911.0390625 -163.1484375 911.0390625 -163.1484375 920.0625 -193.625 c 0,16,17
 927.122070312 -217.474609375 927.122070312 -217.474609375 923.25 -238.25 c 0,18,19
 920.127929688 -255.00390625 920.127929688 -255.00390625 910.159179688 -268.619140625 c 0,20,21
 900.486328125 -281.826171875 900.486328125 -281.826171875 885.4140625 -290.630859375 c 0,22,23
 859.146484375 -305.974609375 859.146484375 -305.974609375 821.25 -305.75 c 0,24,25
 811.54296875 -305.69140625 811.54296875 -305.69140625 802.236328125 -304.622070312 c 0,26,27
 792.9296875 -303.552734375 792.9296875 -303.552734375 783.69140625 -301.377929688 c 0,28,29
 774.451171875 -299.202148438 774.451171875 -299.202148438 765.55859375 -295.622070312 c 0,30,31
 756.666015625 -292.04296875 756.666015625 -292.04296875 748.763671875 -287.21875 c 0,32,33
 731.66015625 -276.77734375 731.66015625 -276.77734375 721.369140625 -261.514648438 c 0,34,35
 710.4609375 -245.337890625 710.4609375 -245.337890625 708.752929688 -226.25 c 0,0,1
  Spiro
    708.752 -226.25 o
    749.25 -142.25 o
    837.75 -112.25 o
    920.062 -193.625 o
    923.25 -238.25 o
    821.25 -305.75 o
    0 0 z
  EndSpiro
EndSplineSet
Refer: 28 110 N 1 0 0 1 0.00050911 0 2
Validated: 32805
EndChar

StartChar: n
Encoding: 37 110 28
Width: 1537
VWidth: 1625
Flags: W
AnchorPoint: "top" 1400 1458 basechar 0
LayerCount: 2
Fore
SplineSet
96 -308 m 0,0,1
 132 -308 132 -308 218 -392 c 0,2,3
 368 -540 368 -540 520 -538 c 0,4,5
 592 -538 592 -538 664 -506 c 0,6,7
 1248 -238 1248 -238 1258 -15 c 0,8,9
 1258 -5 1258 -5 1258 4 c 0,10,11
 1255 19 1255 19 1116 22 c 1,12,13
 658 4 l 1,14,15
 481 4 481 4 366 174 c 1,16,17
 366 174 l 2,18,19
 366 174 l 0,20,21
 366 238 366 238 474 305 c 0,22,23
 704 448 704 448 1060 844 c 0,24,25
 1096 884 1096 884 1265 1155 c 0,26,27
 1371 1323 1371 1323 1402 1322 c 0,28,29
 1402 1322 l 0,30,31
 1835 1298 1835 1298 573 189 c 1,32,33
 567 161 567 161 660 164 c 1,34,35
 874 192 874 192 1096 196 c 0,36,37
 1314 199 1314 199 1130 370 c 1,38,39
 970 536 970 536 1180 430 c 0,40,41
 1302 366 1302 366 1368 291 c 0,42,43
 1460 181 1460 181 1459 -7.5 c 128,-1,44
 1458 -196 1458 -196 1306 -316 c 0,45,46
 1062 -505 1062 -505 880 -592.5 c 128,-1,47
 698 -680 698 -680 451 -680 c 0,48,49
 299 -680 299 -680 174 -584 c 0,50,51
 68 -500 68 -500 68 -380 c 0,52,53
 67 -308 67 -308 96 -308 c 0,0,1
EndSplineSet
Validated: 37
EndChar

StartChar: o
Encoding: 38 111 29
Width: 1047
VWidth: 1440
Flags: W
LayerCount: 2
Fore
SplineSet
812 100 m 1,0,-1
 520 780 l 1,1,-1
 561 102 l 1,2,-1
 812 100 l 1,0,-1
413 760 m 1,3,-1
 180 118 l 1,4,-1
 413 100 l 1,5,-1
 413 760 l 1,3,-1
970 74 m 0,6,7
 970 13 970 13 605 14 c 0,8,9
 455 14 455 14 261.5 21 c 128,-1,10
 68 28 68 28 68 40 c 0,11,12
 68 86 68 86 140 312 c 128,-1,13
 212 538 212 538 319 799 c 128,-1,14
 426 1060 426 1060 458 1060 c 0,15,16
 502 1060 502 1060 690 710 c 0,17,18
 970 190 970 190 970 74 c 0,6,7
EndSplineSet
Validated: 33
EndChar

StartChar: s
Encoding: 40 115 31
Width: 1839
VWidth: 1781
Flags: W
AnchorPoint: "top" 1130 1622 basechar 0
LayerCount: 2
Fore
SplineSet
70 248 m 0,0,1
 70 254 70 254 113 277 c 128,-1,2
 156 300 156 300 228 344 c 128,-1,3
 300 388 300 388 390 450 c 128,-1,4
 480 512 480 512 579 609.5 c 128,-1,5
 678 707 678 707 769.5 823.5 c 128,-1,6
 861 940 861 940 946 1103 c 1,7,-1
 1110 1492 l 1,8,9
 1406 1492 1406 1492 1224 1234 c 0,10,11
 1220 1230 1220 1230 1097.5 1053 c 128,-1,12
 975 876 975 876 897.5 771 c 128,-1,13
 820 666 820 666 686 516 c 0,14,15
 561 373 561 373 445 288 c 0,16,17
 413 264 413 264 416 244 c 0,18,19
 416 177 416 177 826 136 c 0,20,21
 922 128 922 128 1014 188 c 0,22,23
 1084 234 1084 234 1102 296 c 128,-1,24
 1120 358 1120 358 1126 420.5 c 128,-1,25
 1132 483 1132 483 1142 524 c 0,26,27
 1152 570 1152 570 1190 570 c 0,28,29
 1244 570 1244 570 1258 534 c 0,30,31
 1273 496 1273 496 1281.5 425.5 c 128,-1,32
 1290 355 1290 355 1329 308 c 0,33,34
 1403 212 1403 212 1504 212 c 0,35,36
 1510 212 1510 212 1518 212 c 0,37,38
 1622 227 1622 227 1622 314 c 0,39,40
 1622 470 1622 470 1475 616 c 1,41,42
 1424 698 1424 698 1423 718 c 0,43,44
 1423 724 1423 724 1428 722 c 0,45,46
 1430 722 l 0,47,48
 1587 696 1587 696 1676 556 c 0,49,50
 1766 416 1766 416 1766 234 c 0,51,52
 1766 153 1766 153 1678 113 c 0,53,54
 1629 91 1629 91 1586 90 c 1,55,-1
 1295 163 l 1,56,57
 1187 159 1187 159 1123 129 c 128,-1,58
 1059 99 1059 99 964.5 64 c 128,-1,59
 870 29 870 29 794 32 c 0,60,61
 674 35 674 35 372 118.5 c 128,-1,62
 70 202 70 202 70 248 c 0,0,1
EndSplineSet
Validated: 33
EndChar

StartChar: t
Encoding: 41 116 32
Width: 1445
VWidth: 869
Flags: WO
HStem: 369 40<1042 1070> 472 102<1030 1106> 547 20G<1187 1262>
VStem: 1024 90<477 570>
AnchorPoint: "top" 806 1208 basechar 0
LayerCount: 2
Fore
SplineSet
221 654 m 4
 221 657 221 657 221 660 c 0
 221 788 221 788 328 788 c 0
 332 788 332 788 334 788 c 0
 456 784 456 784 456 659 c 0
 456 517 456 517 342 518 c 0
 221 518 221 518 221 654 c 4
334 170 m 1
 219 174 219 174 219 305 c 0
 221 305.527864045 221 305.527864045 221 310 c 0
 221 438 221 438 328 438 c 0
 332 438 332 438 334 438 c 0
 456 434 456 434 456 300 c 0
 456 170 456 170 334 170 c 1
EndSplineSet
Refer: 67 -1 N 1 0 0 1 160 10 2
EndChar

StartChar: u
Encoding: 42 117 33
Width: 1036
VWidth: 1419
Flags: W
LayerCount: 2
Fore
SplineSet
516.6875 606.40625 m 0,0,1
 623.112304688 606.40625 623.112304688 606.40625 629.299804688 502.456054688 c 0,2,3
 633.01171875 457.90625 633.01171875 457.90625 605.787109375 430.681640625 c 128,-1,4
 578.5625 403.456054688 578.5625 403.456054688 531.537109375 402.21875 c 0,5,6
 527.82421875 402.21875 l 0,7,8
 431.299804688 402.21875 431.299804688 402.21875 431.299804688 509.880859375 c 0,9,10
 432.537109375 606.40625 432.537109375 606.40625 516.6875 606.40625 c 0,0,1
790.174804688 654.668945312 m 0,11,12
 706.024414062 818.018554688 706.024414062 818.018554688 535.25 821.731445312 c 0,13,14
 531.537109375 821.731445312 531.537109375 821.731445312 495.649414062 821.731445312 c 0,15,16
 369.424804688 818.018554688 369.424804688 818.018554688 290.224609375 683.130859375 c 0,17,18
 220.924804688 564.331054688 220.924804688 564.331054688 222.162109375 485.130859375 c 0,19,20
 222.162109375 351.481445312 222.162109375 351.481445312 305.693359375 259.90625 c 128,-1,21
 389.224609375 168.331054688 389.224609375 168.331054688 483.274414062 168.331054688 c 0,22,23
 550.099609375 168.331054688 550.099609375 168.331054688 624.349609375 207.931640625 c 0,24,25
 827.299804688 311.880859375 827.299804688 311.880859375 827.299804688 512.356445312 c 0,26,27
 826.0625 585.369140625 826.0625 585.369140625 790.174804688 654.668945312 c 0,11,12
65 496.268554688 m 0,28,29
 65 699.21875 65 699.21875 193.69921875 855.143554688 c 0,30,31
 329.82421875 1013.54394531 329.82421875 1013.54394531 542.674804688 1013.54394531 c 0,32,33
 657.76171875 1013.54394531 657.76171875 1013.54394531 758.618164062 946.099609375 c 128,-1,34
 859.474609375 878.65625 859.474609375 878.65625 916.399414062 767.28125 c 0,35,36
 977.037109375 648.481445312 977.037109375 648.481445312 976.41796875 517.306640625 c 128,-1,37
 975.799804688 386.130859375 975.799804688 386.130859375 922.586914062 271.662109375 c 128,-1,38
 869.375 157.193359375 869.375 157.193359375 767.899414062 86.65625 c 1,39,40
 574.849609375 2.505859375 574.849609375 2.505859375 531.537109375 7.4560546875 c 1,41,42
 402.836914062 7.4560546875 402.836914062 7.4560546875 297.03125 69.3310546875 c 128,-1,43
 191.224609375 131.206054688 191.224609375 131.206054688 128.112304688 243.818359375 c 128,-1,44
 65 356.431640625 65 356.431640625 65 496.268554688 c 0,28,29
EndSplineSet
Validated: 33
EndChar

StartChar: x
Encoding: 45 120 36
Width: 1313
VWidth: 1447
Flags: W
AnchorPoint: "top" 903 1526 basechar 0
LayerCount: 2
Back
Refer: 25 107 N 1 0 0 1 19.0013 0 2
Fore
SplineSet
410 890 m 1,0,-1
 746 335 l 0,1,2
 530 541 530 541 314 748 c 0,3,-1
 410 890 l 1,0,-1
EndSplineSet
Refer: 25 107 N 1 0 0 1 10 0 2
Validated: 32773
EndChar

StartChar: y
Encoding: 46 121 37
Width: 1274
VWidth: 1127
Flags: W
AnchorPoint: "top" 579 1117 basechar 0
LayerCount: 2
Fore
SplineSet
988 -148 m 1,0,-1
 323 -138 l 1,1,-1
 614 -748 l 1,2,-1
 988 -148 l 1,0,-1
783 742 m 0,3,4
 940 518 940 518 1074 282 c 0,5,6
 1199 55 1199 55 1198 4 c 0,7,8
 1198 1 1198 1 1198 0 c 0,9,10
 1192 -52 1192 -52 925 -536 c 0,11,12
 713 -920 713 -920 590 -920 c 0,13,14
 546 -920 546 -920 512 -872 c 0,15,16
 466 -805 466 -805 221 -323 c 0,17,18
 69 -21 69 -21 70 36 c 0,19,20
 70 72 70 72 168 301 c 128,-1,21
 266 530 266 530 390 750 c 0,22,23
 510 968 510 968 566 966 c 0,24,25
 623 969 623 969 783 742 c 0,3,4
570 760 m 1,26,27
 274 194 274 194 271 134 c 0,28,29
 271 130 271 130 274 125 c 0,30,31
 289 111 289 111 518 114 c 0,32,33
 626 114 626 114 782 116 c 1,34,-1
 945 122 l 1,35,-1
 570 760 l 1,26,27
EndSplineSet
Validated: 33
EndChar

StartChar: braceleft
Encoding: 48 123 39
Width: 1205
VWidth: 1455
Flags: W
LayerCount: 2
Fore
SplineSet
765 1565 m 0,0,-1
 765 1554 l 2,1,-1
 370 934 l 1,2,3
 510 814 510 814 586 814 c 0,4,5
 658 814 658 814 675 922 c 0,6,7
 713 1149 713 1149 730 1149 c 0,8,-1
 732 1148 l 0,9,-1
 794 1010 l 0,10,11
 800 911 800 911 854 902 c 0,12,13
 860 902 860 902 867 904 c 0,14,15
 967 922 967 922 966 942 c 0,16,17
 966 945 966 945 964 946 c 0,18,-1
 964 948 l 0,19,20
 935 1066 935 1066 934 1108 c 0,21,22
 934 1130 934 1130 945 1130 c 0,23,24
 960 1130 960 1130 1004 1056 c 0,25,26
 1193 748 1193 748 1194 605 c 0,27,-1
 1194 604 l 0,28,-1
 1194 604 l 0,29,30
 1194 520 1194 520 1082 413 c 0,31,32
 894 233 894 233 594 125 c 0,33,34
 410 61 410 61 280 61 c 0,35,36
 202 61 202 61 143 86 c 0,37,38
 89 108 89 108 88 210 c 0,39,40
 88 213 88 213 88 214 c 0,41,42
 88 263 88 263 102 330 c 1,43,44
 158 379 158 379 212 424 c 1,45,46
 184 354 184 354 184 302 c 0,47,-1
 184 302 l 0,48,-1
 184 302 l 0,49,50
 184 174 184 174 314 172 c 0,51,-1
 316 172 l 0,52,-1
 317 172 l 0,53,54
 401 172 401 172 550 230 c 0,55,56
 682 280 682 280 936 456 c 0,57,58
 1072 552 1072 552 1078 652 c 0,59,60
 1078 666 1078 666 1076 680 c 0,61,62
 1052 790 1052 790 1010 820 c 1,63,64
 908 796 908 796 846 794 c 0,65,66
 744 794 744 794 744 858 c 0,67,-1
 744 860 l 1,68,69
 662 624 662 624 564 672 c 0,70,71
 462 722 462 722 404 746 c 1,72,-1
 164 886 l 1,73,74
 392 1106 392 1106 532 1379 c 0,75,76
 684 1671 684 1671 712 1672 c 0,77,78
 765 1669 765 1669 765 1565 c 0,0,-1
EndSplineSet
Refer: 2 -1 N 1 0 0 1 -305 1376 2
EndChar

StartChar: braceright
Encoding: 49 125 40
Width: 904
VWidth: 1377
Flags: W
LayerCount: 2
Fore
SplineSet
594 762 m 4,0,1
 653 762 653 762 655 707 c 4,2,3
 655 704 655 704 655 701 c 4,4,5
 655 655 655 655 604 666 c 4,6,7
 555 672 555 672 555.5 717 c 132,-1,8
 556 762 556 762 594 762 c 4,0,1
EndSplineSet
Validated: 33
EndChar

StartChar: N_tilde
Encoding: 50 126 41
Width: 1575
VWidth: 1745
Flags: W
AnchorPoint: "top" 1320 1776 basechar 0
LayerCount: 2
Fore
SplineSet
858 102 m 1,0,-1
 1009 134 l 1,1,-1
 970 323 l 1,2,3
 898 291 898 291 847 238 c 0,4,5
 740 124 740 124 858 102 c 1,0,-1
628 58 m 0,6,7
 628 110 628 110 778 291 c 0,8,9
 942 486 942 486 1010 484 c 0,10,11
 1052 484 1052 484 1128 274 c 1,12,13
 1152 230 1152 230 1190 232 c 0,14,15
 1396 232 1396 232 1390 326 c 0,16,17
 1386 414 1386 414 1272 498 c 0,18,19
 1092 632 1092 632 924 634 c 0,20,21
 781 634 781 634 630 518 c 0,22,23
 -56 -20 -56 -20 90 166 c 1,24,25
 200 322 200 322 441 523 c 128,-1,26
 682 724 682 724 796 860 c 0,27,28
 936 1030 936 1030 1000 1116 c 0,29,30
 1177 1348 1177 1348 1277 1606 c 0,31,32
 1301 1664 1301 1664 1336 1664 c 0,33,34
 1354 1664 1354 1664 1376 1649 c 0,35,36
 1436 1611 1436 1611 1443 1526 c 1,37,38
 1431 1433 1431 1433 1220 1156 c 0,39,40
 1022 896 1022 896 968 780 c 0,41,42
 962 766 962 766 1000 754 c 128,-1,43
 1038 742 1038 742 1100 730 c 0,44,45
 1236 706 1236 706 1382 614 c 128,-1,46
 1528 522 1528 522 1528 291 c 0,47,48
 1528 205 1528 205 1486 163 c 0,49,50
 1476 153 1476 153 1260 90 c 0,51,52
 1188 70 1188 70 1158 24 c 0,53,54
 1154 18 1154 18 1137 -178 c 0,55,56
 1133 -232 1133 -232 1080 -230 c 4,57,58
 1008 -230 1008 -230 1014 -110 c 1,59,60
 1014 30 1014 30 836 32 c 1,61,62
 628 20 628 20 628 58 c 0,6,7
EndSplineSet
Validated: 33
EndChar

StartChar: long_consonant
Encoding: 51 778 42
Width: 904
VWidth: 1647
Flags: W
AnchorPoint: "top" 616 996 mark 0
LayerCount: 2
Fore
SplineSet
433 1326 m 0,0,1
 433 1154 433 1154 580 1138 c 1,2,-1
 564 1446 l 1,3,4
 433 1434 433 1434 433 1326 c 0,0,1
614 1520 m 1,5,6
 855 1506 855 1506 854 1213 c 0,7,8
 854 1075 854 1075 634 1073 c 1,9,-1
 584 1074 l 1,10,11
 357 1089 357 1089 358 1338 c 0,12,13
 358 1510 358 1510 561 1520 c 1,14,-1
 614 1520 l 1,5,6
634 1134 m 0,15,16
 790 1122 790 1122 788 1306 c 1,17,18
 785 1412 785 1412 618 1443 c 1,19,20
 634 1134 l 0,15,16
EndSplineSet
EndChar

StartChar: j
Encoding: 33 106 43
Width: 659
VWidth: 1849
Flags: W
AnchorPoint: "top" 258 1512 basechar 0
LayerCount: 2
Fore
SplineSet
182 298 m 1,0,1
 98 298 98 298 99 330 c 0,2,3
 99 348 99 348 126.5 370 c 128,-1,4
 154 392 154 392 308 399 c 0,5,6
 418 407 418 407 424 477 c 0,7,8
 427 497 427 497 426 515 c 0,9,10
 427 631 427 631 369 632 c 0,11,12
 351 632 351 632 330 620 c 0,13,14
 164 548 164 548 113 548 c 0,15,16
 103 548 103 548 96 550 c 0,17,18
 68 560 68 560 68 580 c 0,19,20
 68 629 68 629 282 724 c 0,21,22
 352 756 352 756 402 758 c 0,23,24
 542 758 542 758 544 512 c 0,25,26
 544 477 544 477 540 440 c 1,27,28
 546 358 546 358 609 257 c 128,-1,29
 672 156 672 156 672 93 c 0,30,31
 672 78 672 78 668 67 c 0,32,33
 658 32 658 32 340 29 c 1,34,-1
 131 76 l 1,35,36
 131 169 131 169 218 170 c 0,37,38
 246 170 246 170 301 155 c 128,-1,39
 356 140 356 140 414 140 c 128,-1,40
 472 140 472 140 506 170 c 0,41,42
 512 174 512 174 512 182 c 0,43,44
 512 211 512 211 428 280 c 0,45,46
 404 302 404 302 317 302 c 1,47,-1
 182 298 l 1,0,1
106 637 m 1,48,49
 464 1383 464 1383 544 1792 c 1,50,-1
 764 1672 l 1,51,-1
 106 637 l 1,48,49
EndSplineSet
Validated: 33
EndChar

StartChar: zero
Encoding: 3 48 45
Width: 1743
VWidth: 1379
Flags: W
LayerCount: 2
Fore
SplineSet
1411 1068 m 25,0,-1
 476 1030 l 25,1,-1
 492 -29 l 25,2,-1
 1414 -3 l 25,3,-1
 1411 1068 l 25,0,-1
369 -170 m 25,4,-1
 344 1174 l 25,5,-1
 1618 1190 l 25,6,-1
 1622 -131 l 25,7,-1
 369 -170 l 25,4,-1
EndSplineSet
Validated: 1
EndChar

StartChar: one
Encoding: 4 49 46
Width: 1747
VWidth: 1405
Flags: W
LayerCount: 2
Fore
SplineSet
783 1202 m 16,0,1
 743 1205 743 1205 708 1206 c 0,2,3
 222 1206 222 1206 224 690 c 0,4,5
 224 646 224 646 228 596 c 8,6,7
 268 64 268 64 870 14 c 16,8,9
 926 10 926 10 975 10 c 0,10,11
 1493 10 1493 10 1494 445 c 0,12,13
 1494 471 1494 471 1494 502 c 8,14,15
 1443 1152 1443 1152 783 1202 c 16,0,1
796 1284 m 8,16,17
 1578 1223 1578 1223 1624 462 c 16,18,19
 1627 427 1627 427 1626 396 c 0,20,21
 1626 -154 1626 -154 998 -154 c 0,22,23
 940 -154 940 -154 878 -150 c 8,24,25
 182 -96 182 -96 142 572 c 16,26,27
 139 614 139 614 140 654 c 0,28,29
 140 1288 140 1288 714 1288 c 0,30,31
 754 1287 754 1287 796 1284 c 8,16,17
EndSplineSet
Validated: 33
EndChar

StartChar: two
Encoding: 5 50 47
Width: 1747
VWidth: 1405
Flags: W
LayerCount: 2
Fore
SplineSet
796 1284 m 0,1,2
 1578 1223 1578 1223 1624 462 c 0,3,4
 1627 427 1627 427 1626 396 c 0,5,6
 1626 -154 1626 -154 998 -154 c 0,7,8
 940 -154 940 -154 878 -150 c 0,9,10
 182 -96 182 -96 142 572 c 0,11,12
 139 614 139 614 140 654 c 0,13,14
 140 1288 140 1288 714 1288 c 0,15,0
 754 1287 754 1287 796 1284 c 0,1,2
707 1202 m 1,16,17
 224 1203 224 1203 224 689 c 0,18,19
 224 645 224 645 228 596 c 0,20,21
 264 96 264 96 792 22 c 1,22,-1
 707 1202 l 1,16,17
911 14 m 1,23,24
 943 11 943 11 974 14 c 0,25,26
 1494 14 1494 14 1496 445 c 0,27,28
 1496 473 1496 473 1494 502 c 0,29,30
 1448 1113 1448 1113 858 1190 c 1,31,-1
 911 14 l 1,23,24
EndSplineSet
Validated: 33
EndChar

StartChar: three
Encoding: 6 51 48
Width: 1747
VWidth: 1405
Flags: W
LayerCount: 2
Fore
SplineSet
796 1284 m 0,0,1
 1578 1223 1578 1223 1624 462 c 0,2,3
 1627 427 1627 427 1626 396 c 0,4,5
 1626 -154 1626 -154 998 -154 c 0,6,7
 940 -154 940 -154 878 -150 c 0,8,9
 182 -96 182 -96 142 572 c 0,10,11
 139 614 139 614 140 654 c 0,12,13
 140 1288 140 1288 714 1288 c 0,14,15
 754 1287 754 1287 796 1284 c 0,0,1
783 1202 m 0,16,17
 745 1205 745 1205 712 1206 c 0,18,19
 222 1206 222 1206 221 686 c 0,20,21
 221 671 221 671 224 654 c 1,22,-1
 1484 576 l 1,23,24
 1405 1152 1405 1152 783 1202 c 0,16,17
783 22 m 1,25,-1
 701 483 l 1,26,-1
 241 506 l 1,27,28
 307 92 307 92 783 22 c 1,25,-1
911 14 m 1,29,30
 946 11 946 11 980 12 c 0,31,32
 1495 12 1495 12 1494 440 c 1,33,-1
 854 474 l 1,34,-1
 911 14 l 1,29,30
EndSplineSet
Validated: 33
EndChar

StartChar: four
Encoding: 7 52 49
Width: 1747
VWidth: 1405
Flags: W
LayerCount: 2
Fore
SplineSet
796 1284 m 0,0,1
 1578 1223 1578 1223 1624 462 c 0,2,3
 1627 427 1627 427 1626 396 c 0,4,5
 1626 -154 1626 -154 998 -154 c 0,6,7
 940 -154 940 -154 878 -150 c 0,8,9
 182 -96 182 -96 142 572 c 0,10,11
 139 614 139 614 140 654 c 0,12,13
 140 1288 140 1288 714 1288 c 0,14,15
 754 1287 754 1287 796 1284 c 0,0,1
707 1202 m 1,16,17
 223 1203 223 1203 221 689 c 0,18,19
 221 674 221 674 224 654 c 1,20,-1
 748 616 l 1,21,-1
 707 1202 l 1,16,17
792 22 m 1,22,-1
 760 477 l 1,23,-1
 241 506 l 1,24,25
 312 89 312 89 792 22 c 1,22,-1
911 14 m 1,26,27
 946 11 946 11 978 14 c 0,28,29
 1490 14 1490 14 1498 440 c 1,30,-1
 890 474 l 1,31,-1
 911 14 l 1,26,27
858 1190 m 1,32,-1
 886 612 l 1,33,-1
 1484 576 l 1,34,35
 1410 1116 1410 1116 858 1190 c 1,32,-1
EndSplineSet
Validated: 33
EndChar

StartChar: five
Encoding: 8 53 50
Width: 1747
VWidth: 1477
Flags: W
LayerCount: 2
Fore
SplineSet
796 1213 m 0,0,1
 1578 1152 1578 1152 1624 390 c 0,2,3
 1627 355 1627 355 1626 326 c 0,4,5
 1626 -224 1626 -224 998 -224 c 0,6,7
 940 -224 940 -224 878 -220 c 0,8,9
 182 -166 182 -166 142 500 c 0,10,11
 139 542 139 542 140 584 c 0,12,13
 140 1218 140 1218 714 1216 c 0,14,15
 754 1216 754 1216 796 1213 c 0,0,1
672 1405 m 0,16,17
 658 1423 658 1423 658 1454 c 0,18,19
 658 1480 658 1480 668 1512 c 0,20,21
 690 1586 690 1586 717 1605 c 128,-1,22
 744 1624 744 1624 824 1636 c 0,23,24
 846 1640 846 1640 864 1640 c 0,25,26
 913 1640 913 1640 934 1618 c 0,27,28
 962 1590 962 1590 963 1524 c 0,29,30
 963 1516 963 1516 960 1504 c 0,31,32
 956 1423 956 1423 914 1393 c 0,33,34
 878 1367 878 1367 812 1366 c 0,35,36
 797 1366 797 1366 783 1368 c 0,37,38
 696 1373 696 1373 672 1405 c 0,16,17
707 1132 m 1,39,40
 223 1132 223 1132 221 618 c 0,41,42
 221 603 221 603 224 582 c 1,43,-1
 748 550 l 1,44,-1
 707 1132 l 1,39,40
792 -49 m 1,45,-1
 760 406 l 1,46,-1
 241 436 l 1,47,48
 312 18 312 18 792 -49 c 1,45,-1
911 -56 m 1,49,50
 946 -59 946 -59 978 -58 c 0,51,52
 1490 -58 1490 -58 1498 370 c 1,53,-1
 890 402 l 1,54,-1
 911 -56 l 1,49,50
858 1120 m 1,55,-1
 886 541 l 1,56,-1
 1484 506 l 1,57,58
 1410 1046 1410 1046 858 1120 c 1,55,-1
EndSplineSet
Validated: 33
EndChar

StartChar: six
Encoding: 9 54 51
Width: 1747
VWidth: 1477
Flags: W
LayerCount: 2
Fore
SplineSet
796 1213 m 0,0,1
 1578 1152 1578 1152 1624 390 c 0,2,3
 1627 355 1627 355 1626 326 c 0,4,5
 1626 -224 1626 -224 998 -224 c 0,6,7
 940 -224 940 -224 878 -220 c 0,8,9
 182 -166 182 -166 142 500 c 0,10,11
 139 542 139 542 140 584 c 0,12,13
 140 1218 140 1218 714 1216 c 0,14,15
 754 1216 754 1216 796 1213 c 0,0,1
396 1405 m 0,16,17
 381 1423 381 1423 380 1457 c 0,18,19
 380 1481 380 1481 390 1512 c 0,20,21
 412 1586 412 1586 441 1605 c 128,-1,22
 470 1624 470 1624 547 1636 c 0,23,24
 569 1640 569 1640 588 1640 c 0,25,26
 633 1640 633 1640 655 1618 c 0,27,28
 683 1590 683 1590 682 1524 c 0,29,30
 682 1516 682 1516 682 1504 c 0,31,32
 678 1423 678 1423 636 1393 c 0,33,34
 601 1367 601 1367 538 1366 c 0,35,36
 524 1366 524 1366 509 1368 c 0,37,38
 424 1373 424 1373 396 1405 c 0,16,17
918 1405 m 0,39,40
 904 1423 904 1423 904 1454 c 0,41,42
 904 1480 904 1480 914 1512 c 0,43,44
 936 1586 936 1586 962.5 1605 c 128,-1,45
 989 1624 989 1624 1070 1636 c 0,46,47
 1092 1640 1092 1640 1110 1640 c 0,48,49
 1159 1640 1159 1640 1180 1618 c 0,50,51
 1208 1590 1208 1590 1206 1524 c 0,52,53
 1206 1516 1206 1516 1206 1504 c 0,54,55
 1202 1423 1202 1423 1160 1393 c 0,56,57
 1124 1367 1124 1367 1059 1366 c 0,58,59
 1045 1366 1045 1366 1030 1368 c 0,60,61
 944 1373 944 1373 918 1405 c 0,39,40
707 1132 m 1,62,63
 223 1132 223 1132 221 618 c 0,64,65
 221 603 221 603 224 582 c 1,66,-1
 748 550 l 1,67,-1
 707 1132 l 1,62,63
792 -49 m 1,68,-1
 760 406 l 1,69,-1
 241 436 l 1,70,71
 312 18 312 18 792 -49 c 1,68,-1
911 -56 m 1,72,73
 946 -59 946 -59 978 -58 c 0,74,75
 1490 -58 1490 -58 1494 370 c 1,76,-1
 890 402 l 1,77,-1
 911 -56 l 1,72,73
858 1120 m 1,78,-1
 886 541 l 1,79,-1
 1484 506 l 1,80,81
 1410 1046 1410 1046 858 1120 c 1,78,-1
EndSplineSet
Validated: 2081
EndChar

StartChar: seven
Encoding: 10 55 52
Width: 1539
VWidth: 1379
Flags: W
LayerCount: 2
Fore
SplineSet
164 -170 m 1,0,-1
 140 1174 l 1,1,-1
 1414 1190 l 1,2,-1
 1418 -131 l 1,3,-1
 164 -170 l 1,0,-1
274 920 m 1,4,-1
 285 -29 l 1,5,-1
 1114 -10 l 1,6,-1
 274 920 l 1,4,-1
390 1034 m 1,7,-1
 1208 84 l 1,8,-1
 1204 1068 l 1,9,-1
 390 1034 l 1,7,-1
EndSplineSet
Validated: 1
EndChar

StartChar: eight
Encoding: 11 56 53
Width: 1539
VWidth: 1379
Flags: W
LayerCount: 2
Fore
SplineSet
164 -170 m 1,0,-1
 140 1174 l 1,1,-1
 1414 1190 l 1,2,-1
 1418 -131 l 1,3,-1
 164 -170 l 1,0,-1
1204 -6 m 1,4,-1
 742 424 l 1,5,-1
 390 -29 l 1,6,-1
 1204 -6 l 1,4,-1
1274 60 m 1,7,-1
 1266 1068 l 1,8,-1
 1228 1068 l 1,9,-1
 1236 1059 l 1,10,-1
 820 518 l 1,11,-1
 1274 60 l 1,7,-1
1126 1059 m 1,12,-1
 270 1030 l 1,13,-1
 285 -10 l 1,14,-1
 1126 1059 l 1,12,-1
EndSplineSet
Validated: 1
EndChar

StartChar: nine
Encoding: 12 57 54
Width: 1539
VWidth: 1379
Flags: W
LayerCount: 2
Fore
SplineSet
164 -170 m 1,0,-1
 140 1174 l 1,1,-1
 1414 1190 l 1,2,-1
 1418 -131 l 1,3,-1
 164 -170 l 1,0,-1
270 998 m 1,4,-1
 285 -10 l 1,5,-1
 708 530 l 1,6,-1
 270 998 l 1,4,-1
1208 -6 m 1,7,-1
 771 463 l 1,8,-1
 390 -29 l 1,9,-1
 1208 -6 l 1,7,-1
390 1034 m 1,10,-1
 771 608 l 1,11,-1
 1126 1059 l 1,12,-1
 390 1034 l 1,10,-1
1274 49 m 1,13,-1
 1266 1068 l 1,14,-1
 1231 1068 l 1,15,-1
 828 538 l 1,16,-1
 1274 49 l 1,13,-1
EndSplineSet
Validated: 1
EndChar

StartChar: hundred
Encoding: 52 8588 55
Width: 1539
VWidth: 1347
Flags: W
LayerCount: 2
Fore
SplineSet
840 680 m 0,0,1
 840 560 840 560 716 570 c 4,2,3
 649 574 649 574 643 634 c 0,4,5
 625 790 625 790 739 788 c 0,6,7
 840 784 840 784 840 680 c 0,0,1
EndSplineSet
Refer: 45 48 N 1 0 0 1 -204 195 2
Validated: 32801
EndChar

StartChar: thousand
Encoding: 53 8589 56
Width: 1529
VWidth: 1451
Flags: W
LayerCount: 2
Fore
SplineSet
696 1472 m 0,0,1
 565 1472 565 1472 566 1542 c 0,2,3
 566 1562 566 1562 582 1606 c 0,4,5
 596 1650 596 1650 618 1661 c 0,6,7
 640 1673 640 1673 680 1684 c 0,8,9
 720 1692 720 1692 732 1692 c 0,10,11
 811 1692 811 1692 812 1603 c 0,12,13
 812 1593 812 1593 812 1582 c 0,14,15
 812 1518 812 1518 780 1496 c 0,16,17
 748 1472 748 1472 696 1472 c 0,0,1
690 654 m 0,18,19
 588 662 588 662 588 730 c 0,20,21
 588 872 588 872 739 872 c 0,22,23
 838 872 838 872 828 765 c 4,24,25
 828 654 828 654 690 654 c 0,18,19
EndSplineSet
Refer: 45 48 N 1 0 0 1 -218 206 2
Validated: 32801
EndChar

StartChar: million
Encoding: 54 8590 57
Width: 1539
VWidth: 1402
Flags: W
LayerCount: 2
Fore
SplineSet
1198 1270 m 1,0,-1
 270 1228 l 1,1,-1
 278 780 l 1,2,-1
 1201 792 l 1,3,-1
 1198 1270 l 1,0,-1
160 29 m 1,4,-1
 136 1376 l 1,5,-1
 1405 1394 l 1,6,-1
 1414 72 l 1,7,-1
 160 29 l 1,4,-1
566 1574 m 0,8,9
 552 1589 552 1589 552 1618 c 0,10,11
 552 1644 552 1644 564 1678 c 0,12,13
 588 1752 588 1752 612 1773.5 c 128,-1,14
 636 1795 636 1795 716 1804 c 0,15,16
 738 1807 738 1807 753 1806 c 0,17,18
 805 1806 805 1806 828 1782 c 0,19,20
 854 1758 854 1758 852 1696 c 0,21,22
 852 1684 852 1684 852 1670 c 0,23,24
 846 1586 846 1586 806 1558 c 0,25,26
 771 1536 771 1536 707 1536 c 0,27,28
 695 1536 695 1536 680 1539 c 0,29,30
 594 1545 594 1545 566 1574 c 0,8,9
280 707 m 1,31,-1
 288 164 l 1,32,-1
 1204 196 l 1,33,-1
 1202 707 l 1,34,-1
 280 707 l 1,31,-1
EndSplineSet
Validated: 33
EndChar

StartChar: milliard
Encoding: 55 8591 58
Width: 1537
VWidth: 1459
Flags: W
LayerCount: 2
Fore
SplineSet
1201 1270 m 1,0,-1
 266 1234 l 1,1,-1
 274 780 l 1,2,-1
 1202 792 l 1,3,-1
 1201 1270 l 1,0,-1
163 36 m 1,4,-1
 138 1376 l 1,5,-1
 1411 1394 l 1,6,-1
 1416 78 l 1,7,-1
 163 36 l 1,4,-1
896 1556 m 0,8,9
 881 1576 881 1576 881 1606 c 0,10,11
 881 1630 881 1630 890 1660 c 0,12,13
 912 1730 912 1730 939 1752 c 128,-1,14
 966 1774 966 1774 1046 1784 c 0,15,16
 1064 1787 1064 1787 1080 1786 c 0,17,18
 1132 1786 1132 1786 1158 1763 c 0,19,20
 1186 1735 1186 1735 1187 1667 c 0,21,22
 1187 1661 1187 1661 1184 1652 c 0,23,24
 1180 1573 1180 1573 1138 1542 c 0,25,26
 1102 1516 1102 1516 1038 1516 c 0,27,28
 1024 1516 1024 1516 1010 1516 c 0,29,30
 924 1521 924 1521 896 1556 c 0,8,9
588 1894 m 0,31,32
 573 1914 573 1914 573 1944 c 0,33,34
 573 1968 573 1968 582 1998 c 0,35,36
 604 2068 604 2068 632 2090 c 128,-1,37
 660 2112 660 2112 740 2124 c 0,38,39
 762 2128 762 2128 778 2127 c 0,40,41
 827 2127 827 2127 850 2104 c 0,42,43
 876 2076 876 2076 876 2013 c 0,44,45
 876 2001 876 2001 874 1990 c 0,46,47
 868 1911 868 1911 828 1878 c 0,48,49
 793 1852 793 1852 730 1853 c 0,50,51
 716 1853 716 1853 701 1853 c 0,52,53
 616 1859 616 1859 588 1894 c 0,31,32
330 1550 m 0,54,55
 315 1570 315 1570 316 1600 c 0,56,57
 316 1624 316 1624 324 1654 c 0,58,59
 346 1724 346 1724 374 1746 c 128,-1,60
 402 1768 402 1768 483 1780 c 0,61,62
 505 1784 505 1784 520 1784 c 0,63,64
 569 1784 569 1784 591 1760 c 0,65,66
 617 1732 617 1732 618 1670 c 0,67,68
 618 1658 618 1658 616 1646 c 0,69,70
 610 1567 610 1567 570 1533 c 0,71,72
 535 1507 535 1507 472 1510 c 0,73,74
 458 1510 458 1510 444 1510 c 0,75,76
 358 1515 358 1515 330 1550 c 0,54,55
276 707 m 1,77,-1
 284 170 l 1,78,-1
 1206 202 l 1,79,-1
 1204 712 l 1,80,-1
 276 707 l 1,77,-1
EndSplineSet
Validated: 33
EndChar

StartChar: billion
Encoding: 60 8592 59
Width: 1732
VWidth: 3576
Flags: W
LayerCount: 2
Fore
SplineSet
256.25390625 744.959960938 m 25,0,-1
 292.974609375 701.760742188 l 25,1,-1
 249.774414062 670.080078125 l 25,2,-1
 200.814453125 716.16015625 l 25,3,-1
 256.25390625 744.959960938 l 25,0,-1
324.654296875 782.400390625 m 0,4,5
 212.334960938 888.239257812 212.334960938 888.239257812 139.614257812 742.080078125 c 0,6,7
 90.654296875 649.919921875 90.654296875 649.919921875 154.734375 609.599609375 c 24,8,9
 223.854492188 566.400390625 223.854492188 566.400390625 318.89453125 606.719726562 c 0,10,11
 451.374023438 670.080078125 451.374023438 670.080078125 324.654296875 782.400390625 c 0,4,5
511.854492188 722.639648438 m 25,12,-1
 1462.25390625 736.3203125 l 25,13,-1
 1473.77441406 658.560546875 l 25,14,-1
 517.614257812 655.6796875 l 25,15,-1
 511.854492188 722.639648438 l 25,12,-1
74.0947265625 586.560546875 m 0,16,17
 39.5341796875 624 39.5341796875 624 68.3349609375 710.400390625 c 0,18,19
 93.5341796875 793.919921875 93.5341796875 793.919921875 125.934570312 819.83984375 c 0,20,21
 160.495117188 842.16015625 160.495117188 842.16015625 252.294921875 856.919921875 c 128,-1,22
 344.094726562 871.6796875 344.094726562 871.6796875 380.454101562 834.239257812 c 128,-1,23
 416.814453125 796.799804688 416.814453125 796.799804688 413.934570312 701.760742188 c 0,24,25
 408.173828125 606.719726562 408.173828125 606.719726562 359.21484375 569.280273438 c 128,-1,26
 310.25390625 531.83984375 310.25390625 531.83984375 209.454101562 540.48046875 c 0,27,28
 108.654296875 546.239257812 108.654296875 546.239257812 74.0947265625 586.560546875 c 0,16,17
1442.81445312 1194.23925781 m 25,29,-1
 544.25390625 1159.6796875 l 25,30,-1
 563.6953125 137.280273438 l 25,31,-1
 1447.13476562 168.959960938 l 25,32,-1
 1442.81445312 1194.23925781 l 25,29,-1
445.614257812 7.6796875 m 25,33,-1
 420.415039062 1295.76074219 l 25,34,-1
 1640.81445312 1312.3203125 l 25,35,-1
 1646.57421875 50.8798828125 l 25,36,-1
 445.614257812 7.6796875 l 25,33,-1
EndSplineSet
EndChar

StartChar: billiard
Encoding: 61 8593 60
Width: 1726
VWidth: 3576
Flags: W
LayerCount: 2
Fore
SplineSet
922.857421875 1216 m 25,0,-1
 1003.49707031 1218.87988281 l 25,1,-1
 1058.21679688 144.639648438 l 25,2,-1
 989.096679688 156.16015625 l 25,3,-1
 922.857421875 1216 l 25,0,-1
255.416015625 760.959960938 m 25,4,-1
 292.13671875 717.760742188 l 25,5,-1
 248.936523438 686.080078125 l 25,6,-1
 199.9765625 732.16015625 l 25,7,-1
 255.416015625 760.959960938 l 25,4,-1
323.81640625 798.400390625 m 0,8,9
 217.9765625 899.919921875 217.9765625 899.919921875 138.776367188 758.080078125 c 0,10,11
 89.81640625 665.919921875 89.81640625 665.919921875 153.896484375 625.599609375 c 24,12,13
 228.776367188 579.51953125 228.776367188 579.51953125 318.056640625 622.719726562 c 0,14,15
 447.657226562 683.200195312 447.657226562 683.200195312 323.81640625 798.400390625 c 0,8,9
511.016601562 738.639648438 m 25,16,-1
 1461.41601562 752.3203125 l 25,17,-1
 1472.93652344 674.560546875 l 25,18,-1
 516.776367188 671.6796875 l 25,19,-1
 511.016601562 738.639648438 l 25,16,-1
73.2568359375 602.560546875 m 0,20,21
 38.6962890625 640 38.6962890625 640 67.4970703125 726.400390625 c 0,22,23
 92.6962890625 809.919921875 92.6962890625 809.919921875 125.096679688 835.83984375 c 0,24,25
 159.657226562 858.16015625 159.657226562 858.16015625 251.45703125 872.919921875 c 128,-1,26
 343.256835938 887.6796875 343.256835938 887.6796875 379.616210938 850.239257812 c 128,-1,27
 415.9765625 812.799804688 415.9765625 812.799804688 413.096679688 717.760742188 c 0,28,29
 407.3359375 622.719726562 407.3359375 622.719726562 358.376953125 585.280273438 c 128,-1,30
 309.416015625 547.83984375 309.416015625 547.83984375 208.616210938 556.48046875 c 0,31,32
 107.81640625 562.239257812 107.81640625 562.239257812 73.2568359375 602.560546875 c 0,20,21
1441.9765625 1210.23925781 m 25,33,-1
 543.416015625 1175.6796875 l 25,34,-1
 562.857421875 153.280273438 l 25,35,-1
 1446.296875 184.959960938 l 25,36,-1
 1441.9765625 1210.23925781 l 25,33,-1
444.776367188 23.6796875 m 25,37,-1
 419.577148438 1311.76074219 l 25,38,-1
 1639.9765625 1328.3203125 l 25,39,-1
 1645.73632812 66.8798828125 l 25,40,-1
 444.776367188 23.6796875 l 25,37,-1
EndSplineSet
EndChar

StartChar: googol
Encoding: 62 8594 61
Width: 2060
VWidth: 3846
Flags: W
LayerCount: 2
Fore
SplineSet
500.775390625 744.106445312 m 25
 1451.17578125 757.787109375 l 25
 1462.6953125 680.026367188 l 25
 506.536132812 677.146484375 l 25
 500.775390625 744.106445312 l 25
912.615234375 1221.46582031 m 25
 993.255859375 1224.34667969 l 25
 1047.97558594 150.106445312 l 25
 978.85546875 161.626953125 l 25
 912.615234375 1221.46582031 l 25
1414.45605469 1225.78710938 m 25
 515.895507812 1188.34667969 l 25
 535.3359375 169.545898438 l 25
 1418.77539062 197.626953125 l 25
 1414.45605469 1225.78710938 l 25
417.255859375 39.2265625 m 25
 392.055664062 1326.58691406 l 25
 1612.45605469 1343.86621094 l 25
 1618.21484375 79.5458984375 l 25
 417.255859375 39.2265625 l 25
EndSplineSet
Refer: 65 -1 N 0.72 0 0 0.72 11.1756 21.9465 2
Refer: 65 -1 N 0.72 0 0 0.72 803.176 -791.653 2
Refer: 65 -1 N 0.72 0 0 0.72 788.776 806.747 2
Refer: 65 -1 N 0.72 0 0 0.72 1573.58 21.9465 2
EndChar

StartChar: big_dot
Encoding: 65 -1 65
Width: 2352
VWidth: 3576
Flags: W
LayerCount: 2
Fore
SplineSet
342 1018 m 29,0,-1
 393 958 l 29,1,-1
 333 914 l 29,2,-1
 265 978 l 29,3,-1
 342 1018 l 29,0,-1
437 1070 m 4,4,5
 281 1217 281 1217 180 1014 c 4,6,7
 112 886 112 886 201 830 c 28,8,9
 297 770 297 770 429 826 c 4,10,11
 613 914 613 914 437 1070 c 4,4,5
89 798 m 4,12,13
 41 850 41 850 81 970 c 4,14,15
 116 1086 116 1086 161 1122 c 4,16,17
 209 1153 209 1153 336.5 1173.5 c 132,-1,18
 464 1194 464 1194 514.5 1142 c 132,-1,19
 565 1090 565 1090 561 958 c 4,20,21
 553 826 553 826 485 774 c 132,-1,22
 417 722 417 722 277 734 c 4,23,24
 137 742 137 742 89 798 c 4,12,13
EndSplineSet
EndChar

StartChar: NameMe.67
Encoding: 67 -1 67
Width: 569
VWidth: 499
Flags: WO
LayerCount: 2
Fore
SplineSet
618 -350.5 m 4,0,1
 618 -380.5 618 -380.5 595 -402.5 c 132,-1,2
 572 -424.5 572 -424.5 543 -424.5 c 132,-1,3
 514 -424.5 514 -424.5 492 -404.5 c 4,4,5
 466 -382.5 466 -382.5 466 -310.5 c 4,6,7
 466 -172.5 466 -172.5 462 -130.5 c 4,8,9
 456 -74.5 456 -74.5 440 -74.5 c 4,10,11
 350 -74.5 350 -74.5 167 -75.5 c 132,-1,12
 -16 -76.5 -16 -76.5 -112 -76.5 c 4,13,14
 -142 -76.5 -142 -76.5 -164 -54.5 c 132,-1,15
 -186 -32.5 -186 -32.5 -186 -2.5 c 132,-1,16
 -186 27.5 -186 27.5 -163 50.5 c 132,-1,17
 -140 73.5 -140 73.5 -112 73.5 c 4,18,19
 -12 73.5 -12 73.5 154 60.5 c 132,-1,20
 320 47.5 320 47.5 408 47.5 c 5,21,22
 400 123.5 400 123.5 398 191.5 c 4,23,24
 398 285.5 398 285.5 407 363.5 c 132,-1,25
 416 441.5 416 441.5 440 528.5 c 132,-1,26
 464 615.5 464 615.5 516 665.5 c 132,-1,27
 568 715.5 568 715.5 644 715.5 c 6,28,-1
 674 713.5 l 5,29,30
 872 685.5 872 685.5 1012 557.5 c 132,-1,31
 1152 429.5 1152 429.5 1152 231.5 c 4,32,33
 1152 43.5 1152 43.5 914 -26.5 c 4,34,35
 868 -40.5 868 -40.5 696 -76.5 c 4,36,37
 638 -88.5 638 -88.5 582 -94.5 c 5,38,39
 584 -110.5 584 -110.5 593 -149.5 c 132,-1,40
 602 -188.5 602 -188.5 606 -214.5 c 132,-1,41
 610 -240.5 610 -240.5 614 -279.5 c 132,-1,42
 618 -318.5 618 -318.5 618 -350.5 c 4,0,1
976 225.5 m 4,43,44
 976 227.5 l 4,45,46
 976 321.5 976 321.5 848 419.5 c 4,47,48
 748 495.5 748 495.5 672 495.5 c 4,49,50
 604 495.5 604 495.5 570 447.5 c 4,51,52
 546 413.5 546 413.5 546 343.5 c 4,53,54
 546 323.5 546 323.5 548 301.5 c 4,55,56
 552 265.5 552 265.5 559 217.5 c 132,-1,57
 566 169.5 566 169.5 566 147.5 c 4,58,59
 568 71.5 568 71.5 708 71.5 c 4,60,61
 976 71.5 976 71.5 976 225.5 c 4,43,44
1158 -392.5 m 4,62,63
 1158 -468.5 1158 -468.5 1030 -468.5 c 4,64,65
 1016 -468.5 1016 -468.5 999 -468.5 c 132,-1,66
 982 -468.5 982 -468.5 968 -468.5 c 132,-1,67
 954 -468.5 954 -468.5 937 -470.5 c 132,-1,68
 920 -472.5 920 -472.5 906 -473.5 c 132,-1,69
 892 -474.5 892 -474.5 878 -474.5 c 132,-1,70
 864 -474.5 864 -474.5 849 -475.5 c 132,-1,71
 834 -476.5 834 -476.5 820 -477.5 c 132,-1,72
 806 -478.5 806 -478.5 792 -478.5 c 132,-1,73
 778 -478.5 778 -478.5 763 -478.5 c 132,-1,74
 748 -478.5 748 -478.5 734 -478.5 c 4,75,76
 684 -478.5 684 -478.5 643 -488.5 c 132,-1,77
 602 -498.5 602 -498.5 556 -522.5 c 4,78,79
 498 -554.5 498 -554.5 448 -589.5 c 132,-1,80
 398 -624.5 398 -624.5 350 -670.5 c 132,-1,81
 302 -716.5 302 -716.5 271 -745.5 c 132,-1,82
 240 -774.5 240 -774.5 192 -837.5 c 132,-1,83
 144 -900.5 144 -900.5 125 -924.5 c 132,-1,84
 106 -948.5 106 -948.5 48 -1028.5 c 132,-1,85
 -10 -1108.5 -10 -1108.5 -26 -1132.5 c 4,86,87
 -54 -1172.5 -54 -1172.5 -266 -1478.5 c 4,88,89
 -726 -2152.5 -726 -2152.5 -738 -2154.5 c 4,90,91
 -742 -2154.5 -742 -2154.5 -716 -2112.5 c 4,92,93
 -630 -1966.5 -630 -1966.5 -470 -1617.5 c 132,-1,94
 -310 -1268.5 -310 -1268.5 -148 -1044.5 c 4,95,96
 -136 -1028.5 -136 -1028.5 -86 -959.5 c 132,-1,97
 -36 -890.5 -36 -890.5 -23 -872.5 c 132,-1,98
 -10 -854.5 -10 -854.5 34 -796.5 c 132,-1,99
 78 -738.5 78 -738.5 99 -716.5 c 132,-1,100
 120 -694.5 120 -694.5 161 -647.5 c 132,-1,101
 202 -600.5 202 -600.5 233 -574.5 c 132,-1,102
 264 -548.5 264 -548.5 306 -513.5 c 132,-1,103
 348 -478.5 348 -478.5 391 -449.5 c 132,-1,104
 434 -420.5 434 -420.5 482 -394.5 c 4,105,106
 596 -330.5 596 -330.5 738 -328.5 c 4,107,108
 798 -328.5 798 -328.5 910 -323.5 c 132,-1,109
 1022 -318.5 1022 -318.5 1082 -318.5 c 4,110,111
 1102 -318.5 1102 -318.5 1120 -328.5 c 132,-1,112
 1138 -338.5 1138 -338.5 1148 -355.5 c 132,-1,113
 1158 -372.5 1158 -372.5 1158 -392.5 c 4,62,63
EndSplineSet
EndChar
